<svg xmlns="http://www.w3.org/2000/svg" width="900" height="590" viewBox="0 0 900 590" font-family="ui-sans-serif, Arial, sans-serif">
<defs><linearGradient id="fan" x1="0" y1="0" x2="1" y2="1"><stop offset="0" stop-color="#2b3340"/><stop offset="1" stop-color="#161a21"/></linearGradient><linearGradient id="pos" x1="0" y1="0" x2="1" y2="1"><stop offset="0" stop-color="#54677c"/><stop offset="1" stop-color="#313e4b"/></linearGradient><radialGradient id="disc" cx="0.4" cy="0.35" r="0.75"><stop offset="0" stop-color="#efeff3"/><stop offset="0.6" stop-color="#b9bcc4"/><stop offset="1" stop-color="#7f838d"/></radialGradient><filter id="sh" x="-30%" y="-30%" width="160%" height="160%"><feDropShadow dx="0" dy="6" stdDeviation="9" flood-color="#000" flood-opacity="0.55"/></filter></defs>
<rect x="0" y="0" width="900" height="590" fill="#ffffff"/>
<text x="30" y="22" font-size="19" font-weight="700" fill="#1b1b1b">spincard — layout on the mpv output</text>
<text x="30" y="40" font-size="12" fill="#6b6b6b">every position is a fraction of the live output → identical at 1080p / 4K / windowed</text>
<rect x="30" y="52" width="840" height="472" rx="6" fill="url(#fan)" stroke="#0c0e12"/>
<text x="412" y="123" font-size="13.5" fill="#aab6c8" text-anchor="middle">fanart — full-frame dimmed backdrop</text>
<text x="412" y="142" font-size="11.5" fill="#8895a8" text-anchor="middle">(fades to a faint 0.1 floor, sits behind everything)</text>
<rect x="44" y="66" width="175" height="47" rx="4" fill="#2e2e34" stroke="#A8A8A8" opacity="0.85"/>
<text x="132" y="94" font-size="11.5" fill="#E8E8E8" text-anchor="middle">banner — top-left (on by default)</text>
<rect x="609" y="61" width="252" height="142" rx="4" fill="url(#pos)" stroke="#8aa0b8" stroke-opacity="0.6"/>
<text x="735" y="128" font-size="15" font-weight="700" fill="#eef3f8" text-anchor="middle">POSTER</text>
<text x="735" y="147" font-size="11" fill="#cdd8e4" text-anchor="middle">top-right · TV=16:9 thumb, movie=portrait</text>
<rect x="94" y="281" width="564" height="217" rx="10" fill="#141414" fill-opacity="0.94" filter="url(#sh)"/>
<rect x="94" y="291" width="4" height="197" rx="2" fill="#FFD700"/>
<rect x="118" y="297" width="172" height="40" rx="6" fill="#1b1b1b" stroke="#FFD700" stroke-opacity="0.55"/>
<text x="132" y="323" font-size="19" font-weight="800" fill="#FFD700">clearlogo</text>
<text x="300" y="322" font-size="11" fill="#A8A8A8">title art</text>
<text x="118" y="355" font-size="12" fill="#A8A8A8">the card: bottom-left, grows upward (anchor=top hugs the top)</text>
<text x="118" y="377" font-size="12.5" fill="#E8E8E8">IMDb ★★★★☆ · TMDB · RT · MC</text>
<text x="118" y="397" font-size="12.5" fill="#E8E8E8">genres · plot · cast</text>
<text x="118" y="417" font-size="12.5" fill="#E8E8E8">audio · subs · chapters</text>
<rect x="118" y="443" width="30" height="20" rx="4" fill="#F5C518"/>
<text x="133" y="457" font-size="11" font-weight="700" fill="#000" text-anchor="middle">4K</text>
<rect x="154" y="443" width="46" height="20" rx="4" fill="#78C878"/>
<text x="177" y="457" font-size="11" font-weight="700" fill="#000" text-anchor="middle">HEVC</text>
<rect x="206" y="443" width="38" height="20" rx="4" fill="#78C878"/>
<text x="225" y="457" font-size="11" font-weight="700" fill="#000" text-anchor="middle">AAC</text>
<rect x="250" y="443" width="38" height="20" rx="4" fill="#78C878"/>
<text x="269" y="457" font-size="11" font-weight="700" fill="#000" text-anchor="middle">5.1</text>
<rect x="294" y="443" width="62" height="20" rx="4" fill="#3A3A3A"/>
<text x="325" y="457" font-size="11" font-weight="700" fill="#fff" text-anchor="middle">23.976</text>
<rect x="118" y="476" width="516" height="7" rx="3.5" fill="#3a3a3a"/>
<rect x="118" y="476" width="320" height="7" rx="3.5" fill="#FFD700"/>
<polygon points="93.9,280.7 93.9,332.6 90.3,332.5 86.7,332.1 83.1,331.4 79.6,330.6 76.2,329.4 72.8,328.1 69.5,326.5 66.4,324.7 63.4,322.7 60.5,320.4 57.9,318.0 55.3,315.4 53.0,312.6 50.9,309.7 49.0,306.6 47.3,303.4 45.8,300.1 44.5,296.7 43.5,293.2 42.8,289.7 42.3,286.1 42.0,282.5 42.0,278.8 42.3,275.2 42.8,271.6 43.5,268.1 44.5,264.6 45.8,261.2 47.3,257.9 49.0,254.7 50.9,251.6 53.0,248.7 55.3,245.9 57.9,243.3 60.5,240.9 63.4,238.7 66.4,236.6 69.5,234.8 72.8,233.2 76.2,231.9 79.6,230.7 83.1,229.9 86.7,229.2 90.3,228.9 93.9,228.7 97.5,228.9 101.1,229.2 104.7,229.9 108.2,230.7 111.7,231.9 115.0,233.2 118.3,234.8 121.4,236.6 124.4,238.7 127.3,240.9 130.0,243.3 132.5,245.9 134.8,248.7 137.0,251.6 138.9,254.7 140.6,257.9 142.1,261.2 143.3,264.6 144.3,268.1 145.1,271.6 145.6,275.2 145.8,278.8" fill="url(#disc)" stroke="#5f636c" stroke-width="1" stroke-linejoin="round"/>
<circle cx="93.9" cy="280.7" r="8.3" fill="#20242b"/>
<line x1="609" y1="203" x2="579" y2="257" stroke="#ffffff" stroke-opacity="0.8" stroke-width="1.2"/>
<circle cx="609" cy="203" r="2.6" fill="#ffffff"/>
<rect x="183" y="244" width="396" height="20" rx="4" fill="#000000" fill-opacity="0.62"/>
<text x="573" y="259" font-size="11.5" fill="#ffffff" text-anchor="end">poster width capped (poster_max_width) so it clears the card</text>
<line x1="76" y1="250" x2="106" y2="211" stroke="#ffffff" stroke-opacity="0.8" stroke-width="1.2"/>
<circle cx="76" cy="250" r="2.6" fill="#ffffff"/>
<rect x="106" y="198" width="287" height="20" rx="4" fill="#000000" fill-opacity="0.62"/>
<text x="106" y="213" font-size="11.5" fill="#ffffff" text-anchor="start">disc — 3/4 cut, spins, on the card's corner</text>
<text x="30" y="550" font-size="12.5" fill="#333">draw order (back → front, every bitmap sits ABOVE the card text):</text>
<rect x="30" y="562" width="12" height="12" rx="2" fill="#8794a6"/>
<text x="48" y="572" font-size="12" fill="#333">fanart</text>
<text x="94" y="572" font-size="12" fill="#999">→</text>
<rect x="108" y="562" width="12" height="12" rx="2" fill="#54677c"/>
<text x="126" y="572" font-size="12" fill="#333">poster</text>
<text x="172" y="572" font-size="12" fill="#999">→</text>
<rect x="186" y="562" width="12" height="12" rx="2" fill="#6a6a70"/>
<text x="204" y="572" font-size="12" fill="#333">banner</text>
<text x="250" y="572" font-size="12" fill="#999">→</text>
<rect x="264" y="562" width="12" height="12" rx="2" fill="#FFD700"/>
<text x="282" y="572" font-size="12" fill="#333">clearlogo</text>
<text x="352" y="572" font-size="12" fill="#999">→</text>
<rect x="366" y="562" width="12" height="12" rx="2" fill="#b9bcc4"/>
<text x="384" y="572" font-size="12" fill="#333">disc</text>
</svg>